<svg xmlns="http://www.w3.org/2000/svg" xmlns:xlink="http://www.w3.org/1999/xlink" viewBox="0 0 252 208.74"><defs><style>.cls-1{fill:url(#linear-gradient);}.cls-2{fill:url(#linear-gradient-2);}.cls-3{fill:url(#linear-gradient-3);}.cls-4{fill:url(#linear-gradient-4);}.cls-5{fill:url(#linear-gradient-5);}.cls-6{fill:url(#linear-gradient-6);}.cls-7{fill:url(#linear-gradient-7);}.cls-8{fill:url(#linear-gradient-8);}</style><linearGradient id="linear-gradient" x1="167.02" y1="157.75" x2="235" y2="157.75" gradientUnits="userSpaceOnUse"><stop offset="0" stop-color="#e5e5e5"/><stop offset="1" stop-color="#ccc"/></linearGradient><linearGradient id="linear-gradient-2" x1="150.02" y1="183.93" x2="252" y2="183.93" gradientUnits="userSpaceOnUse"><stop offset="0" stop-color="#fff"/><stop offset="1" stop-color="#e8e8e8"/></linearGradient><linearGradient id="linear-gradient-3" x1="150.02" y1="176.72" x2="183.64" y2="176.72" gradientUnits="userSpaceOnUse"><stop offset="0" stop-color="#fff"/><stop offset="1" stop-color="#e5e5e5"/></linearGradient><linearGradient id="linear-gradient-4" x1="218.38" y1="176.72" x2="252" y2="176.72" xlink:href="#linear-gradient"/><linearGradient id="linear-gradient-5" x1="34.74" y1="104.23" x2="173.71" y2="104.23" xlink:href="#linear-gradient"/><linearGradient id="linear-gradient-6" x1="0" y1="157.76" x2="208.45" y2="157.76" xlink:href="#linear-gradient-2"/><linearGradient id="linear-gradient-7" x1="0" y1="143.01" x2="68.73" y2="143.01" xlink:href="#linear-gradient-3"/><linearGradient id="linear-gradient-8" x1="139.72" y1="143.01" x2="208.45" y2="143.01" xlink:href="#linear-gradient"/></defs><title>Asset 4</title><g id="Layer_2" data-name="Layer 2"><g id="Main_Page" data-name="Main Page"><g id="Content"><g id="Experiencias"><g id="Glacier"><polygon class="cls-1" points="201.01 106.76 167.02 144.7 201.01 208.74 235 144.7 201.01 106.76"/><polygon class="cls-2" points="150.02 208.74 201.01 159.13 252 208.74 150.02 208.74"/><polygon class="cls-3" points="167.02 144.7 150.02 208.74 183.64 176.02 167.02 144.7"/><polygon class="cls-4" points="235 144.7 218.38 176.02 252 208.74 235 144.7"/><polygon class="cls-5" points="104.23 0 34.74 77.56 104.23 208.46 173.71 77.56 104.23 0"/><polygon class="cls-6" points="0 208.46 104.23 107.06 208.46 208.46 0 208.46"/><polygon class="cls-7" points="34.74 77.56 0 208.46 68.73 141.59 34.74 77.56"/><polygon class="cls-8" points="173.71 77.56 139.72 141.59 208.46 208.46 173.71 77.56"/></g></g></g></g></g></svg>