<svg xmlns="http://www.w3.org/2000/svg" xmlns:xlink="http://www.w3.org/1999/xlink" viewBox="0 0 252 544"><defs><style>.cls-1{fill:#12076e;}.cls-2{fill:url(#linear-gradient);}.cls-3{fill:url(#linear-gradient-2);}.cls-4{fill:url(#linear-gradient-3);}.cls-5{fill:url(#linear-gradient-4);}.cls-6{fill:url(#linear-gradient-5);}</style><linearGradient id="linear-gradient" y1="172.49" x2="252" y2="172.49" gradientUnits="userSpaceOnUse"><stop offset="0" stop-color="#200fb2"/><stop offset="1" stop-color="#140e96"/></linearGradient><linearGradient id="linear-gradient-2" y1="86.25" x2="252" y2="86.25" gradientUnits="userSpaceOnUse"><stop offset="0" stop-color="#1b12c9"/><stop offset="1" stop-color="#200fb2"/></linearGradient><linearGradient id="linear-gradient-3" x1="126" y1="261.45" x2="252" y2="261.45" gradientUnits="userSpaceOnUse"><stop offset="0" stop-color="#110b7c"/><stop offset="1" stop-color="#0d0963"/></linearGradient><linearGradient id="linear-gradient-4" x1="1" y1="444.5" y2="444.5" xlink:href="#linear-gradient-3"/><linearGradient id="linear-gradient-5" x1="1" y1="444.5" y2="444.5" xlink:href="#linear-gradient-2"/></defs><title>Asset 5</title><g id="Layer_2" data-name="Layer 2"><g id="Main_Page" data-name="Main Page"><g id="Content"><g id="Experiencias"><g id="Experiencia_1"><g id="Glacier_block"><rect class="cls-1" x="1" width="251" height="287"/><polyline class="cls-2" points="0 0 1 344.99 252 344.99 0 0"/><polyline class="cls-3" points="0 0 252 0 252 172.5 126 172.5 0 0"/><polygon class="cls-4" points="126 171.89 252 351 252 171.89 126 171.89"/><polygon class="cls-5" points="1 544 252 345 1 345 1 544"/><polygon class="cls-6" points="1 544 252 544 252 345 1 544"/></g></g></g></g></g></g></svg>